<?xml version="1.0" standalone="no"?>
<!DOCTYPE svg PUBLIC "-//W3C//DTD SVG 20010904//EN"
 "http://www.w3.org/TR/2001/REC-SVG-20010904/DTD/svg10.dtd">
<svg version="1.0" xmlns="http://www.w3.org/2000/svg"
 width="35pt" height="35pt" viewBox="0 0 512.000000 512.000000"
 preserveAspectRatio="xMidYMid meet">

<g transform="translate(0.000000,512.000000) scale(0.100000,-0.100000)"
fill="#000000" stroke="none">
<path fill='#fff' d="M2743 4931 c-23 -11 -52 -35 -67 -57 l-26 -39 0 -350 c0 -390 1 -395
70 -442 94 -65 229 -17 259 92 17 61 14 649 -3 698 -18 50 -42 76 -91 98 -51
24 -89 23 -142 0z"/>
<path fill='#fff' d="M2220 4839 c-20 -11 -47 -37 -60 -56 -25 -36 -25 -37 -28 -319 -3
-314 1 -349 52 -400 81 -81 215 -63 267 36 17 32 19 62 19 341 0 302 0 307
-23 340 -52 78 -150 103 -227 58z"/>
<path fill='#fff' d="M3241 4838 c-19 -12 -44 -36 -55 -51 -20 -27 -21 -42 -24 -340 -2
-308 -2 -313 20 -351 27 -47 94 -86 147 -86 49 0 98 27 135 73 l31 39 3 300
c3 289 2 301 -18 344 -30 62 -70 87 -145 92 -50 3 -65 0 -94 -20z"/>
<path fill='#fff' d="M1706 4668 c-24 -14 -49 -40 -63 -67 -22 -42 -23 -54 -23 -240 0
-108 5 -212 10 -233 13 -46 77 -105 125 -114 75 -14 153 23 186 88 19 37 20
55 17 263 -3 245 -4 249 -71 299 -42 31 -132 33 -181 4z"/>
<path fill='#fff' d="M1334 4260 c-247 -36 -448 -217 -508 -455 -28 -110 -229 -1724 -223
-1793 9 -123 96 -238 215 -282 137 -52 308 2 390 123 16 23 86 184 156 357 70
173 138 333 151 356 31 53 95 111 154 138 45 21 55 21 761 24 550 2 716 5 722
15 4 6 8 45 8 85 l0 72 -150 0 c-127 0 -160 3 -216 22 -84 27 -161 95 -201
176 -24 49 -28 69 -28 142 0 76 3 92 33 152 36 73 87 124 161 160 45 23 55 23
433 26 l386 3 4 105 c3 102 4 107 31 130 37 31 81 31 112 -1 24 -23 25 -28 25
-170 l0 -145 134 0 c74 0 146 -4 161 -10 34 -13 59 -69 46 -104 -17 -42 -48
-56 -129 -56 -67 0 -73 -2 -67 -17 4 -10 12 -31 18 -48 15 -43 22 -859 8 -985
-10 -90 -49 -227 -73 -257 -12 -14 20 -103 58 -164 79 -127 253 -183 401 -127
121 45 213 177 213 304 0 73 -206 1692 -226 1769 -43 174 -174 330 -339 405
-71 32 -126 46 -216 55 l-66 7 -5 -89 c-4 -59 -12 -105 -26 -136 -29 -65 -104
-142 -171 -174 -48 -24 -68 -28 -141 -28 -94 0 -149 19 -220 75 l-39 31 -45
-35 c-65 -49 -129 -71 -211 -71 -82 0 -146 22 -211 71 l-44 34 -44 -34 c-65
-49 -129 -71 -211 -71 -82 0 -146 22 -211 71 l-45 35 -39 -31 c-71 -56 -126
-75 -220 -75 -72 0 -93 4 -140 27 -70 35 -133 97 -166 165 -21 41 -28 74 -32
143 l-5 90 -31 -1 c-17 -1 -54 -5 -82 -9z m173 -444 c28 -24 28 -24 31 -170
l4 -146 138 0 c130 0 141 -1 164 -22 40 -35 43 -78 11 -116 l-27 -32 -143 0
-144 0 -3 -144 c-3 -137 -4 -146 -27 -170 -32 -34 -88 -36 -119 -3 -20 21 -22
35 -24 167 l-3 145 -146 5 c-155 5 -172 11 -190 58 -13 33 13 89 46 102 15 6
87 10 161 10 l134 0 0 145 c0 142 1 147 25 170 31 32 75 32 112 1z"/>
<path fill='#fff' d="M2825 3394 c-46 -24 -63 -43 -81 -90 -33 -85 6 -177 90 -215 35 -16
66 -19 204 -19 121 0 170 -4 190 -14 41 -21 81 -68 92 -107 15 -52 12 -199 -6
-260 -30 -106 -111 -195 -215 -235 -140 -55 -243 -172 -279 -317 -14 -55 -48
-87 -92 -87 -41 0 -78 40 -78 83 0 111 105 295 221 387 l51 40 -571 0 c-614 0
-613 0 -668 -51 -11 -12 -61 -117 -109 -235 l-87 -215 27 -102 c17 -65 53
-158 101 -257 53 -110 77 -174 85 -220 6 -39 10 -311 10 -687 l0 -623 764 0
765 0 4 598 c4 657 2 640 69 780 16 35 105 164 196 285 170 227 213 298 231
377 6 27 11 234 11 529 0 471 -1 486 -21 528 -26 54 -96 116 -147 131 -27 8
-148 12 -383 12 -292 0 -348 -2 -374 -16z"/>
</g>
</svg>
